<?xml version="1.0" encoding="UTF-8" standalone="no"?>
<!-- Created with Inkscape (http://www.inkscape.org/) -->
<svg
   xmlns:dc="http://purl.org/dc/elements/1.1/"
   xmlns:cc="http://creativecommons.org/ns#"
   xmlns:rdf="http://www.w3.org/1999/02/22-rdf-syntax-ns#"
   xmlns:svg="http://www.w3.org/2000/svg"
   xmlns="http://www.w3.org/2000/svg"
   xmlns:xlink="http://www.w3.org/1999/xlink"
   xmlns:sodipodi="http://sodipodi.sourceforge.net/DTD/sodipodi-0.dtd"
   xmlns:inkscape="http://www.inkscape.org/namespaces/inkscape"
   width="210mm"
   height="297mm"
   id="svg2"
   sodipodi:version="0.32"
   inkscape:version="0.46"
   sodipodi:docname="desenho.svg"
   inkscape:output_extension="org.inkscape.output.svg.inkscape">
  <defs
     id="defs4">
    <inkscape:perspective
       sodipodi:type="inkscape:persp3d"
       inkscape:vp_x="0 : 526.18109 : 1"
       inkscape:vp_y="0 : 1000 : 0"
       inkscape:vp_z="744.09448 : 526.18109 : 1"
       inkscape:persp3d-origin="372.04724 : 350.78739 : 1"
       id="perspective10" />
    <inkscape:perspective
       id="perspective2597"
       inkscape:persp3d-origin="372.04724 : 350.78739 : 1"
       inkscape:vp_z="744.09448 : 526.18109 : 1"
       inkscape:vp_y="0 : 1000 : 0"
       inkscape:vp_x="0 : 526.18109 : 1"
       sodipodi:type="inkscape:persp3d" />
    <inkscape:perspective
       id="perspective2780"
       inkscape:persp3d-origin="372.04724 : 350.78739 : 1"
       inkscape:vp_z="744.09448 : 526.18109 : 1"
       inkscape:vp_y="0 : 1000 : 0"
       inkscape:vp_x="0 : 526.18109 : 1"
       sodipodi:type="inkscape:persp3d" />
  </defs>
  <sodipodi:namedview
     id="base"
     pagecolor="#ffffff"
     bordercolor="#666666"
     borderopacity="1.0"
     inkscape:pageopacity="0.0"
     inkscape:pageshadow="2"
     inkscape:zoom="0.35"
     inkscape:cx="350"
     inkscape:cy="482.25342"
     inkscape:document-units="px"
     inkscape:current-layer="layer1"
     showgrid="false"
     inkscape:window-width="1280"
     inkscape:window-height="949"
     inkscape:window-x="0"
     inkscape:window-y="25" />
  <metadata
     id="metadata7">
    <rdf:RDF>
      <cc:Work
         rdf:about="">
        <dc:format>image/svg+xml</dc:format>
        <dc:type
           rdf:resource="http://purl.org/dc/dcmitype/StillImage" />
      </cc:Work>
    </rdf:RDF>
  </metadata>
  <g
     inkscape:label="Camada 1"
     inkscape:groupmode="layer"
     id="layer1">
    <flowRoot
       xml:space="preserve"
       id="flowRoot2790"
       style="fill:#0000ff;stroke:none;stroke-opacity:1;stroke-width:1px;stroke-linejoin:miter;stroke-linecap:butt;fill-opacity:1;font-family:Bitstream Vera Sans;font-style:normal;font-weight:normal;font-size:70"><flowRegion
         id="flowRegion2792"><rect
           id="rect2794"
           width="71.428574"
           height="154.28572"
           x="-1197.1428"
           y="1029.505"
           style="fill:#0000ff" /></flowRegion><flowPara
         id="flowPara2796"></flowPara></flowRoot>    <g
       id="g2804"
       inkscape:export-filename="/dados/info/ufrgs/TecDigitais/AP05/temposLH.png"
       inkscape:export-xdpi="90"
       inkscape:export-ydpi="90">
      <image
         style="fill:#782121"
         xlink:href="fotos/naovouusar/03042009071.jpg"
         sodipodi:absref="/dados/info/ufrgs/TecDigitais/AP05/fotos/naovouusar/03042009071.jpg"
         width="2592"
         height="1944"
         id="image2782"
         x="-815.16742"
         y="-630.78522" />
      <rect
         y="426.64792"
         x="549.71429"
         height="11.428572"
         width="260"
         id="rect2607"
         style="fill:#ff6600;fill-opacity:1;stroke:#ffffff;stroke-width:2;stroke-miterlimit:4;stroke-dasharray:none;stroke-opacity:1" />
      <rect
         y="388.93356"
         x="803.14282"
         height="68.571426"
         width="11.428572"
         id="rect2609"
         style="fill:#ff6600;fill-opacity:1;stroke:#ffffff;stroke-width:2;stroke-miterlimit:4;stroke-dasharray:none;stroke-opacity:1" />
      <rect
         y="385.2193"
         x="542.57141"
         height="618.57141"
         width="11.428572"
         id="rect2611"
         style="fill:#ff6600;fill-opacity:1;stroke:#ffffff;stroke-width:2;stroke-miterlimit:4;stroke-dasharray:none;stroke-opacity:1" />
      <text
         id="text2618"
         y="415.42844"
         x="623.53937"
         style="font-size:55.23298645px;font-style:normal;font-weight:bold;fill:#ff6600;fill-opacity:1;stroke:none;stroke-width:1px;stroke-linecap:butt;stroke-linejoin:miter;stroke-opacity:1;font-family:Bitstream Vera Sans"
         xml:space="preserve"><tspan
           y="415.42844"
           x="623.53937"
           id="tspan2620"
           sodipodi:role="line">tdlh</tspan></text>
      <rect
         y="21.41361"
         x="795.72748"
         height="8.5714283"
         width="60.777359"
         id="rect2622"
         style="fill:#00ff00;fill-opacity:1;stroke:#ffffff;stroke-width:1.99999988;stroke-miterlimit:4;stroke-dasharray:none;stroke-opacity:1" />
      <rect
         transform="matrix(0,1,-1,0,0,0)"
         y="-798.42468"
         x="-21.07933"
         height="8.5714283"
         width="853.60986"
         id="rect2626"
         style="fill:#00ff00;fill-opacity:1;stroke:#ffffff;stroke-width:2;stroke-miterlimit:4;stroke-dasharray:none;stroke-opacity:1" />
      <text
         id="text2630"
         y="14.270024"
         x="802.14404"
         style="font-size:41.90027618px;font-style:normal;font-weight:bold;fill:#00ff00;fill-opacity:1;stroke:none;stroke-width:1px;stroke-linecap:butt;stroke-linejoin:miter;stroke-opacity:1;font-family:Bitstream Vera Sans"
         xml:space="preserve"><tspan
           y="14.270024"
           x="802.14404"
           id="tspan2632"
           sodipodi:role="line">tr</tspan></text>
      <text
         id="text2637"
         y="372.52829"
         x="537.54797"
         style="font-size:34.65041351px;font-style:normal;font-weight:normal;fill:#ff6600;fill-opacity:1;stroke:none;stroke-width:1px;stroke-linecap:butt;stroke-linejoin:miter;stroke-opacity:1;font-family:Bitstream Vera Sans"
         xml:space="preserve"><tspan
           style="font-style:normal;font-weight:bold"
           y="372.52829"
           x="537.54797"
           id="tspan2639"
           sodipodi:role="line">0</tspan></text>
      <text
         id="text2641"
         y="379.72296"
         x="779.67761"
         style="font-size:34.65041351px;font-style:normal;font-weight:normal;fill:#ff6600;fill-opacity:1;stroke:none;stroke-width:1px;stroke-linecap:butt;stroke-linejoin:miter;stroke-opacity:1;font-family:Bitstream Vera Sans"
         xml:space="preserve"><tspan
           style="font-style:normal;font-weight:bold"
           y="379.72296"
           x="779.67761"
           id="tspan2643"
           sodipodi:role="line">50</tspan></text>
      <text
         id="text2645"
         y="-37.100998"
         x="764.32025"
         style="font-size:34.65041351px;font-style:normal;font-weight:normal;fill:#00ff00;fill-opacity:1;stroke:none;stroke-width:1px;stroke-linecap:butt;stroke-linejoin:miter;stroke-opacity:1;font-family:Bitstream Vera Sans"
         xml:space="preserve"><tspan
           style="font-style:normal;font-weight:bold;fill:#00ff00"
           y="-37.100998"
           x="764.32025"
           id="tspan2647"
           sodipodi:role="line">10</tspan></text>
      <text
         id="text2673"
         y="-163.63205"
         x="1047.2281"
         style="font-size:70px;font-style:normal;font-weight:normal;fill:#000000;fill-opacity:1;stroke:none;stroke-width:1px;stroke-linecap:butt;stroke-linejoin:miter;stroke-opacity:1;font-family:Bitstream Vera Sans"
         xml:space="preserve"><tspan
           style="fill:#0000ff"
           y="-163.63205"
           x="1047.2281"
           id="tspan2675"
           sodipodi:role="line">saida</tspan></text>
      <text
         id="text2677"
         y="921.31549"
         x="999.62195"
         style="font-size:70px;font-style:normal;font-weight:normal;fill:#ff0000;fill-opacity:1;stroke:none;stroke-width:1px;stroke-linecap:butt;stroke-linejoin:miter;stroke-opacity:1;font-family:Bitstream Vera Sans"
         xml:space="preserve"><tspan
           style="fill:#ff0000"
           y="921.31549"
           x="999.62195"
           id="tspan2679"
           sodipodi:role="line">entrada</tspan></text>
      <path
         d="M -749.43913,-112.23122 C -741.80453,-114.07054 -734.3095,-116.42464 -726.62399,-118.03893 C -719.58438,-119.6567 -713.01039,-122.55086 -706.40804,-125.38261 C -700.21737,-128.46885 -693.59296,-130.20245 -686.78014,-131.16467 C -680.14784,-132.0064 -673.55753,-131.9304 -666.96552,-130.93691 C -659.25731,-128.66068 -652.13801,-124.64889 -644.93004,-121.13545 C -635.04978,-115.97377 -625.30646,-110.63264 -616.71468,-103.50567 C -606.46038,-94.50178 -596.50339,-85.140946 -585.83186,-76.625083 C -578.90521,-71.313631 -573.05747,-68.313479 -564.49248,-66.846785 C -554.18733,-66.009713 -544.05572,-63.868033 -533.8279,-62.367873 C -525.71338,-61.162085 -517.53103,-60.604269 -509.33718,-60.380738 C -503.51425,-61.142569 -497.74574,-62.179943 -491.89282,-62.715983 C -485.16167,-64.071656 -478.34362,-64.737111 -471.79907,-66.862095 C -466.3609,-67.272272 -442.28742,-81.124604 -464.10173,-69.106968 C -458.34152,-72.836978 -452.86869,-76.973376 -447.02901,-80.582037 C -437.46834,-85.918226 -428.38281,-92.663714 -417.80407,-95.865874 C -411.87233,-97.440086 -406.03573,-99.037332 -399.91121,-99.651828 C -391.56678,-100.44334 -383.25433,-100.4273 -374.93725,-99.476529 C -363.61471,-96.60459 -352.26274,-93.684386 -341.04738,-90.399753 C -334.07507,-88.65144 -327.35676,-86.064251 -320.34138,-84.4925 C -312.18575,-83.515955 -304.08305,-82.675881 -295.95007,-81.4078 C -286.89519,-80.428366 -277.78588,-78.49019 -268.64696,-78.376978 C -264.0245,-78.319715 -257.28016,-79.01726 -252.71546,-79.410072 C -239.98069,-80.714194 -227.24477,-82.015878 -214.46571,-82.798627 C -207.45129,-83.987981 -200.45138,-85.065676 -193.35498,-85.616541 C -182.29151,-87.898347 -171.15838,-89.674145 -159.91573,-90.768138 C -149.65351,-91.50034 -139.48696,-93.092457 -129.227,-93.891797 C -121.00573,-94.491549 -112.76032,-94.590231 -104.52089,-94.632578 C -92.809117,-94.632617 -81.097013,-94.597032 -69.385256,-94.539379 C -52.181576,-95.340013 -35.143417,-92.883664 -18.088546,-91.038067 C -3.8335533,-90.234518 10.234181,-88.2121 24.360388,-86.237495 C 41.546999,-84.156007 58.81246,-83.366917 76.029994,-81.528792 C 95.275494,-80.032889 114.37485,-77.614491 133.49789,-75.038786 C 145.95411,-73.261165 158.53024,-72.789451 170.97745,-70.99508 C 179.78984,-69.499339 188.59932,-69.154149 197.48534,-69.88708 C 211.77294,-70.854017 225.54563,-75.206291 239.44145,-78.397443 C 249.83854,-80.328526 260.12553,-82.497692 270.19205,-85.739522 C 276.53074,-87.70919 283.0342,-89.078829 289.3898,-90.974618 C 295.80596,-93.165853 302.49766,-93.900144 309.21908,-94.350039 C 316.36458,-94.509418 323.55126,-95.063035 330.6679,-94.266555 C 337.38243,-93.355265 344.07703,-92.635782 350.69295,-91.166336 C 354.55449,-90.12626 358.94305,-89.586587 362.4901,-87.591764 C 363.45235,-87.050607 366.63404,-84.417959 367.52245,-83.698831 C 372.11701,-79.590832 374.82185,-74.211593 377.26192,-68.668781 C 379.16423,-63.642631 381.28014,-58.701795 383.22957,-53.688934 C 386.11178,-47.837137 388.15972,-41.658964 390.40001,-35.552815 C 392.96394,-28.527886 393.98699,-21.083732 396.05212,-13.910384 C 398.35024,-4.3080721 400.69493,5.2376071 403.4077,14.736579 C 406.71712,24.858939 409.73033,35.091875 412.31506,45.424387 C 415.20969,54.315446 416.38611,63.510592 417.08651,72.79123 C 418.0096,84.073846 420.61564,95.09457 423.24413,106.07371 C 425.94093,116.65213 427.71155,127.42924 428.68951,138.29453 C 429.906,146.78715 430.93815,155.28979 432.24777,163.76833 C 433.49254,174.04712 434.55365,184.33449 435.87776,194.60845 C 436.63233,203.90742 438.14247,213.11205 439.28126,222.36658 C 440.25138,230.96187 440.37981,239.61588 440.5067,248.25508 C 441.3014,256.65068 442.31367,265.01349 442.86264,273.43244 C 443.46884,282.14956 443.07255,290.89412 443.69893,299.60531 C 444.55079,307.22642 445.45202,314.83686 445.93627,322.49194 C 446.30912,329.36463 447.63873,336.13284 448.31335,342.9837 C 448.97371,350.10364 449.06036,357.25599 449.10575,364.40067 C 448.70671,372.93713 450.02111,381.37855 450.78781,389.85195 C 451.53863,399.53595 451.7631,409.24973 451.90572,418.95839 C 451.97706,427.71074 451.96811,436.46351 451.9711,445.21608 C 451.7704,452.19125 453.3002,459.04459 454.01669,465.95453 C 454.56217,473.09539 455.91875,480.15223 457.62955,487.09789 C 459.36719,494.59542 460.31886,502.21613 461.87199,509.75527 C 463.74893,519.67431 465.71578,529.5753 467.87703,539.43757 C 469.74839,550.19877 473.11577,560.55796 476.24085,570.99506 C 479.42031,580.57 481.53453,590.44515 484.2662,600.14886 C 486.69992,608.75981 488.62244,617.50031 490.72633,626.19498 C 493.40266,635.18804 493.80124,644.56182 495.07639,653.79162 C 497.34087,665.37428 498.45551,677.12732 500.19713,688.78469 C 501.68675,697.19097 502.42826,705.68849 503.87047,714.1004 C 505.36608,722.52312 505.77224,731.06858 506.07563,739.60009 C 506.59471,747.44601 508.33609,755.0879 509.8455,762.77684 C 510.92832,771.02772 512.06771,779.26983 513.116,787.52735 C 513.74439,798.61938 516.38311,809.37481 518.8646,820.15417 C 521.4618,834.04398 523.51026,848.04702 525.56321,862.03061 C 527.34171,877.12338 529.79674,892.1256 532.58879,907.06245 C 534.56817,917.41784 537.25056,927.63825 540.11071,937.78306 C 542.00169,944.865 542.70349,952.15561 544.80949,959.18771 C 546.47344,965.29579 548.75909,971.16957 551.15995,977.01504 C 553.15777,983.01958 556.06649,988.68333 559.41375,994.03837 C 563.03854,998.97641 568.17448,1002.0391 573.90854,1003.8954 C 580.15979,1006.0933 585.05293,1004.04 590.67105,1001.367 C 569.72824,1014.6449 589.34667,1001.0287 593.49157,997.42031 C 610.30663,983.1281 632.09694,984.03735 652.66305,983.23508 C 674.6288,983.69138 696.523,985.64478 718.42704,987.2191 C 727.33777,988.04276 736.06042,989.982 744.20569,993.70518 C 751.07226,996.98379 755.97399,1002.6731 760.95013,1008.2206 C 765.62205,1013.4552 771.41701,1015.7601 778.31023,1015.9268 C 786.69392,1014.8065 794.92615,1012.4818 802.93929,1009.807 C 809.8087,1007.9232 815.84916,1004.0761 822.12193,1000.8416 C 828.97355,998.03629 835.56335,994.67362 842.54547,992.19483 C 850.46785,989.82121 858.66568,988.47768 866.61241,986.19392 C 873.58178,984.65857 880.50404,982.96374 887.4674,981.39771 C 895.82415,979.17535 904.32596,977.45859 912.85333,976.01358 C 921.35763,974.73144 929.94643,974.22845 938.53459,973.9869 C 945.94,974.02979 951.30676,978.80335 957.24256,982.4839 C 963.5903,986.30773 970.71161,987.39399 977.95768,987.97597 C 985.48503,988.64596 992.91406,988.36764 1000.2521,986.5494 C 1006.855,984.84884 1013.1503,982.0633 1019.2138,978.97574 C 1025.6428,975.67719 1032.4843,973.39445 1039.3733,971.28257 C 1047.3765,969.01906 1055.3771,967.20134 1063.6438,966.2403 C 1071.7809,965.42901 1079.9678,965.38069 1088.1373,965.34999 C 1093.3673,965.33736 1098.5973,965.34242 1103.8273,965.34748 C 1104.9559,965.34857 1106.1036,965.14366 1107.213,965.35096 C 1108.9252,965.67094 1110.5376,966.39174 1112.2,966.91212 C 1122.2345,970.19069 1131.6232,975.05962 1141.3357,979.12588 C 1147.9776,982.1083 1154.7305,984.90229 1161.7984,986.69991 C 1168.8798,988.48466 1175.9288,987.76164 1183.0592,986.9051 C 1191.095,985.21212 1199.0784,983.19083 1206.9816,980.96007 C 1214.5703,978.57769 1222.1317,976.1798 1229.8223,974.11409 C 1237.6389,971.37183 1245.4489,968.77257 1253.5623,967.06403 C 1260.9636,965.28895 1268.3292,965.78428 1275.7778,966.72244 C 1280.2148,967.36798 1284.6839,967.66433 1289.1573,967.8993 L 1277.7589,976.08691 C 1273.2581,975.8361 1268.7654,975.5037 1264.302,974.84678 C 1256.9495,973.9589 1249.6742,973.75364 1242.4036,975.54141 C 1234.3285,977.34615 1226.5705,980.08728 1218.7119,982.64568 C 1211.0416,984.7545 1203.4998,987.2256 1195.8807,989.49067 C 1187.9092,991.63521 1179.9296,993.8547 1171.7954,995.29021 C 1164.548,996.1094 1157.3619,996.56453 1150.2098,994.66983 C 1143.1407,992.72724 1136.3528,989.9078 1129.6777,986.89754 C 1120.0806,982.72355 1110.7359,977.88875 1100.6999,974.79872 C 1099.0787,974.40343 1097.4876,973.85282 1095.8362,973.61285 C 1089.6246,972.71018 1083.0546,974.24998 1076.8149,973.58653 C 1068.6758,973.65307 1060.5178,973.71535 1052.4177,974.60602 C 1044.2036,975.65032 1036.2333,977.58396 1028.2782,979.86822 C 1021.419,982.04803 1014.6229,984.41416 1008.227,987.75877 C 1002.0758,990.73327 995.7698,993.52023 989.08452,995.05403 C 981.63195,996.62703 974.12419,996.85894 966.53886,996.12221 C 959.11914,995.43168 951.88726,994.09191 945.44674,990.08601 C 939.69009,986.46382 934.40569,982.06563 927.19035,982.27948 C 918.66457,982.53569 910.13462,983.04552 901.70402,984.40948 C 893.16337,985.91669 884.65882,987.70447 876.27407,989.92126 C 869.34107,991.53472 862.39375,993.05768 855.48118,994.7483 C 847.51559,996.8554 839.37,998.30609 831.51534,1000.8178 C 824.59504,1003.446 817.93212,1006.6779 811.1544,1009.6465 C 804.90762,1012.9519 798.74228,1016.5406 791.86325,1018.3964 C 783.72986,1020.9465 775.43966,1023.478 766.90529,1024.1222 C 759.74459,1023.5558 753.75295,1021.0005 748.94037,1015.4927 C 744.07272,1010.0906 739.28007,1004.5581 732.51697,1001.4687 C 724.47875,997.95874 715.91347,996.0914 707.18935,995.25273 C 685.42067,993.46831 663.64479,991.33901 641.78473,991.20756 C 631.27617,991.66693 620.71822,991.92951 610.31544,993.64224 C 607.8504,994.04808 603.71569,997.50989 602.96907,995.12584 C 602.16886,992.57067 607.14564,991.77321 609.18778,990.04147 C 610.04997,989.31033 607.40277,991.42908 606.51027,992.12289 C 598.3573,999.41105 589.5672,1005.2172 579.65546,1010.1279 C 573.82801,1012.7807 568.50513,1014.1003 562.24119,1011.7973 C 556.30546,1009.6539 550.99288,1006.3251 547.26162,1001.1125 C 543.86608,995.69787 540.88537,989.9711 538.87411,983.88948 C 536.46435,977.9986 534.12371,972.09697 532.47678,965.93488 C 530.32721,958.89498 529.61493,951.59891 527.80808,944.47891 C 524.99174,934.26152 522.33377,923.9753 520.42225,913.54666 C 517.64274,898.58492 515.08509,883.57207 513.41953,868.44336 C 511.36307,854.50811 509.11968,840.59152 506.6549,826.72854 C 504.15223,815.92701 501.36066,805.15076 500.74345,794.03101 C 499.68406,785.8072 498.47788,777.6123 497.47396,769.38337 C 495.97205,761.61845 494.168,753.91826 493.61717,745.99984 C 493.35935,737.52725 492.95944,729.04089 491.49035,720.6754 C 490.04609,712.2449 489.29285,703.7393 487.8581,695.30513 C 486.09882,683.6413 485.21102,671.84323 482.81855,660.26798 C 481.3507,651.12197 481.04097,641.79126 478.41914,632.84178 C 476.28236,624.17067 474.41854,615.43151 471.9997,606.83108 C 469.24354,597.13436 467.20836,587.2414 464.03157,577.66519 C 460.96736,567.18689 457.42002,556.83832 455.57537,546.04682 C 453.37284,536.18545 451.50043,526.25494 449.59756,516.33334 C 447.98655,508.82581 446.83399,501.28642 445.27087,493.77519 C 443.55041,486.77232 442.11355,479.66461 441.55597,472.46601 C 440.83959,465.50485 439.31101,458.59659 439.4879,451.57541 C 439.50394,442.82542 439.52626,434.07517 439.44855,425.3254 C 439.34703,415.64797 439.17233,405.96238 438.39263,396.31158 C 437.59715,387.81264 436.24682,379.34246 436.61054,370.77967 C 436.54401,363.67484 436.47436,356.56202 435.86628,349.47807 C 435.21116,342.61041 433.84869,335.83406 433.43814,328.95456 C 433.00478,321.29172 432.17235,313.66838 431.29683,306.04476 C 430.58575,297.33862 430.9981,288.58971 430.42312,279.86998 C 429.90575,271.4264 428.91743,263.0396 428.03458,254.6296 C 427.94592,246.0339 427.80387,237.425 426.88657,228.86959 C 425.80319,219.60437 424.2268,210.4066 423.52716,201.09869 C 422.24978,190.83558 421.12317,180.56908 419.90155,170.30334 C 418.54377,161.80436 417.51482,153.27686 416.25634,144.76189 C 415.40451,133.93003 413.7608,123.17754 411.08482,112.63608 C 408.40575,101.60458 405.59866,90.576471 404.70156,79.217873 C 404.02784,70.01367 402.88377,60.889689 400.00902,52.072739 C 397.51436,41.727499 394.51829,31.494752 391.23009,21.375923 C 388.50242,11.897023 385.94837,2.4170975 383.74011,-7.1927607 C 381.65555,-14.326864 380.61386,-21.726954 378.11038,-28.734469 C 375.85875,-34.826065 373.83777,-41.002689 370.90724,-46.82371 C 368.96707,-51.819208 366.84371,-56.73814 364.98574,-61.760487 C 362.65031,-67.105772 360.06526,-72.293694 355.59688,-76.211076 C 350.3108,-80.42072 345.77652,-81.96023 339.1293,-83.140037 C 332.55835,-84.559219 325.88412,-85.226648 319.22494,-86.118747 C 312.13555,-86.682747 305.00379,-86.299388 297.90631,-86.005638 C 291.23102,-85.48856 284.62631,-84.550311 278.25342,-82.397799 C 271.87111,-80.635303 265.4325,-79.077779 259.09674,-77.144679 C 249.07899,-74.004803 238.80011,-72.094991 228.50871,-70.070737 C 214.51225,-66.853185 200.63636,-62.4903 186.23424,-61.581084 C 177.28687,-60.953742 168.40669,-61.451181 159.54897,-62.940112 C 147.18515,-64.735332 134.68465,-65.282476 122.32354,-67.149171 C 103.24505,-69.780115 84.159418,-72.040685 64.965302,-73.666 C 47.685554,-75.463566 30.332459,-76.022734 13.108309,-78.299665 C -1.0033253,-80.287444 -15.095728,-82.056926 -29.315671,-83.06895 C -46.318751,-84.998672 -63.325856,-87.262305 -80.485104,-86.475725 C -92.276645,-86.430223 -104.06822,-86.440829 -115.85971,-86.38298 C -124.0652,-86.316627 -132.27639,-86.217195 -140.46237,-85.590163 C -150.69483,-84.740285 -160.85047,-83.212734 -171.09187,-82.477029 C -182.37768,-81.321451 -193.5268,-79.409763 -204.66204,-77.259781 C -211.73261,-76.652884 -218.69717,-75.424103 -225.72905,-74.511455 C -238.43549,-73.760734 -251.10122,-72.51382 -263.76458,-71.241264 C -268.81268,-70.834595 -274.84982,-70.21777 -279.93408,-70.321636 C -289.08508,-70.508582 -298.19497,-72.487705 -307.27021,-73.440706 C -315.48463,-74.651116 -323.73903,-75.150657 -331.92131,-76.478469 C -338.89542,-78.172301 -345.62665,-80.700914 -352.56989,-82.518867 C -363.73793,-85.777796 -374.98372,-88.968457 -386.36278,-91.365454 C -394.62755,-92.241501 -402.90841,-92.122314 -411.18014,-91.264087 C -417.2311,-90.467671 -423.0637,-88.871563 -428.93595,-87.235418 C -434.1998,-85.433497 -450.98461,-75.897997 -431.06719,-87.388045 C -430.1051,-87.943059 -432.96095,-86.226879 -433.90783,-85.646296 C -439.83717,-82.170763 -445.24598,-77.949447 -451.02265,-74.23752 C -461.33942,-68.034244 -471.13585,-61.298474 -482.90319,-58.278203 C -489.54648,-56.35671 -496.41644,-55.534266 -503.21556,-54.320645 C -509.07929,-53.717033 -514.86435,-52.537762 -520.74617,-52.146538 C -528.93016,-52.440259 -537.09539,-53.10378 -545.19247,-54.365773 C -555.44777,-55.925523 -565.65122,-57.846091 -575.9838,-58.810778 C -584.42053,-60.444142 -590.88981,-63.839547 -597.6224,-69.227161 C -608.18218,-77.866388 -618.10496,-87.244066 -628.4342,-96.15123 C -637.12615,-102.97068 -646.69893,-108.44722 -656.52841,-113.47972 C -663.67959,-116.88492 -670.77418,-120.82795 -678.46392,-122.83057 C -684.97886,-123.71701 -691.52015,-123.62049 -698.04198,-122.72077 C -704.78982,-121.62714 -711.2944,-119.69404 -717.44472,-116.6566 C -724.04198,-113.80034 -730.71533,-111.13077 -737.76274,-109.5745 C -745.47413,-107.82678 -753.03188,-105.47911 -760.74542,-103.72794 L -749.43913,-112.23122 z"
         id="path2788"
         style="opacity:1;fill:#ff0000;fill-opacity:1;stroke:#ffffff;stroke-width:2;stroke-miterlimit:4;stroke-dasharray:none;stroke-opacity:1" />
      <path
         d="M -744.33731,1020.0369 C -736.35061,1007.1665 -729.71565,993.59626 -723.35511,979.87532 C -715.21375,961.69067 -708.89888,942.74641 -702.80407,923.79754 C -698.85072,912.34053 -697.02728,900.32252 -693.5974,888.72478 C -690.75623,881.40217 -688.67905,873.97535 -687.04608,866.30132 C -684.85876,856.79166 -684.13099,847.05951 -683.66246,837.34068 C -682.59122,828.2522 -681.51636,819.18435 -680.9962,810.04435 C -680.7752,800.55872 -679.2472,791.17718 -678.45318,781.73337 C -677.54372,767.72823 -677.58941,753.67901 -677.56726,739.65025 C -677.641,727.99655 -677.84285,716.37199 -676.84058,704.75455 C -675.72875,694.67832 -675.22987,684.56062 -674.97138,674.43165 C -672.70912,656.25569 -670.46312,638.09211 -670.6043,619.75652 C -671.45246,602.90582 -672.75388,586.07843 -674.83607,569.33555 C -676.24832,558.56896 -677.06682,547.74215 -677.48454,536.89542 C -677.38592,527.43553 -678.57392,518.05127 -679.36773,508.64115 C -679.68968,499.403 -680.61056,490.25412 -681.7415,481.08857 C -682.66661,473.84641 -683.10399,466.55951 -683.3254,459.26612 C -683.1616,451.35892 -684.40378,443.5351 -685.07445,435.67317 C -685.14645,425.21404 -684.27896,414.776 -683.85303,404.32864 C -684.15243,396.23387 -682.7782,388.42769 -680.92758,380.60294 C -679.0872,372.88114 -678.58223,364.95707 -677.14647,357.16392 C -675.87312,350.52738 -675.31006,343.80505 -674.20974,337.14123 C -673.33514,329.21836 -671.62589,321.46891 -669.65696,313.75838 C -665.9816,302.30989 -663.32417,290.62031 -661.75525,278.70754 C -660.24138,269.94095 -658.8589,261.17348 -658.15859,252.30188 C -656.36383,240.64811 -653.19998,229.28624 -651.23211,217.66483 C -649.82086,208.5234 -649.60361,199.28192 -648.33846,190.12677 C -647.25579,182.20898 -646.78913,174.24957 -645.62578,166.34324 C -644.70846,158.20605 -643.45493,150.1288 -642.28754,142.02558 C -641.44826,132.93078 -640.3957,123.87454 -639.31657,114.80423 C -638.16585,106.85211 -638.39598,98.777875 -637.4642,90.815935 C -636.01245,83.58177 -635.76501,76.198807 -634.81732,68.902903 C -633.61666,61.798583 -632.74431,54.657365 -632.2935,47.467783 C -632.41842,40.418314 -631.06959,33.508891 -630.2519,26.539522 C -629.22254,17.554791 -629.45429,8.4999422 -628.78707,-0.5049486 C -627.77405,-9.688365 -626.95775,-18.881548 -626.55259,-28.111988 C -626.66528,-36.544471 -625.8858,-44.87554 -624.95368,-53.24089 C -623.99789,-61.837568 -623.6736,-70.483056 -623.4883,-79.124932 C -623.78591,-86.140755 -623.0292,-93.034905 -622.12244,-99.97193 C -621.20032,-107.48462 -621.01496,-115.02984 -619.87028,-122.51438 C -618.81356,-128.73662 -618.38259,-135.01395 -617.12153,-141.19914 C -615.37882,-148.61432 -612.58271,-155.6785 -609.41842,-162.5856 C -602.83615,-177.68481 -601.79116,-176.58537 -585.82483,-185.86944 C -576.68913,-183.86612 -570.4855,-176.93089 -565.50932,-169.47078 C -559.49725,-160.58275 -556.71325,-150.11056 -553.57672,-139.97917 C -550.30623,-129.02343 -548.20117,-117.75419 -545.88496,-106.56542 C -544.06005,-98.15755 -543.31678,-88.990374 -538.11417,-81.864501 C -535.81364,-80.251386 -533.32174,-79.812175 -530.6745,-80.953999 C -529.9059,-81.285515 -527.80771,-82.672624 -528.56546,-82.317014 C -531.91146,-80.74675 -534.93095,-78.41644 -538.45524,-77.302525 C -539.53131,-76.962414 -536.99462,-79.02328 -536.26431,-79.883657 C -531.96665,-85.405128 -529.56509,-91.964113 -526.45194,-98.14201 C -523.11736,-104.6803 -518.03874,-109.78419 -512.63878,-114.61129 C -503.35794,-121.87624 -493.02081,-128.09138 -481.47118,-130.69562 C -474.66679,-132.22584 -468.45514,-130.06192 -462.42437,-127.07009 C -455.4445,-123.30283 -449.94199,-117.51516 -443.34373,-113.2017 C -437.95524,-110.03879 -432.27585,-107.89876 -426.14377,-106.79844 C -419.99882,-105.67391 -414.50798,-107.67079 -409.32789,-110.80278 C -408.37684,-111.35315 -405.48497,-112.93106 -406.47476,-112.45388 C -409.20376,-111.13824 -411.57691,-108.86254 -414.5509,-108.28479 C -416.25374,-107.95398 -411.85349,-110.47115 -410.58579,-111.65523 C -406.64128,-115.33955 -403.2312,-119.48699 -399.91475,-123.72504 C -395.21929,-130.18256 -391.65452,-137.33617 -387.92206,-144.36022 C -381.25852,-153.08449 -373.28908,-159.83181 -363.66506,-152.87302 C -359.40481,-148.66719 -356.99604,-143.10441 -355.34528,-137.44262 C -353.93726,-131.72959 -353.79192,-125.82765 -353.68382,-119.97633 C -353.49538,-114.26776 -353.98839,-108.53675 -353.39026,-102.85181 C -352.63934,-97.048618 -351.081,-91.378641 -349.23313,-85.83669 C -347.27874,-79.898209 -344.22375,-74.392748 -341.51585,-68.768189 C -338.79772,-63.147274 -336.41073,-57.395243 -334.14635,-51.578372 C -331.90314,-45.155793 -329.48232,-38.830534 -327.75037,-32.243703 C -326.16589,-24.088043 -323.72471,-16.152476 -321.9608,-8.040647 C -320.1722,-0.5472138 -320.13851,7.1729715 -319.2218,14.774395 C -317.79879,23.344907 -317.6183,32.04598 -316.60875,40.65827 C -315.19741,49.05796 -314.52324,57.541855 -314.0704,66.039109 C -313.56796,72.583429 -314.09797,79.180789 -313.39536,85.703624 C -312.25299,92.621701 -311.60941,99.588516 -311.21797,106.58445 C -310.89778,113.64687 -310.88388,120.71921 -310.85864,127.78759 C -310.77678,134.26293 -312.26646,140.61559 -312.92338,147.04077 C -313.68217,155.26911 -315.11499,163.39324 -315.81268,171.63675 C -316.47872,180.48656 -316.57589,189.36503 -316.63096,198.23549 C -317.14764,205.5001 -315.93113,212.62287 -314.92255,219.77815 C -314.19828,225.64509 -312.59137,231.33875 -311.73528,237.1915 C -311.43987,242.96555 -310.10846,248.58293 -309.18456,254.27105 C -308.66864,260.32751 -307.24294,266.23025 -306.37094,272.237 C -304.43931,279.83634 -303.79337,287.65344 -302.58044,295.37429 C -301.27955,303.37839 -299.49975,311.29094 -297.78537,319.21593 C -296.29652,327.25303 -293.90398,335.06573 -292.41647,343.09985 C -291.13688,350.3628 -289.6264,357.52912 -288.85615,364.87576 C -288.10986,372.70739 -288.06751,380.58012 -288.0337,388.4398 C -288.00876,396.92886 -288.02609,405.41798 -288.02846,413.90706 C -288.01625,420.95713 -288.02146,428.00717 -288.02479,435.05724 C -288.02625,441.56171 -288.00441,448.06618 -288.02047,454.57064 C -288.03137,462.03564 -288.03796,469.50065 -288.03652,476.96567 C -287.67355,484.96263 -288.29774,492.85664 -289.28878,500.77954 C -290.24168,508.22229 -290.59611,515.71871 -290.78639,523.21367 C -290.93845,531.07037 -290.91079,538.92915 -290.91881,546.78692 C -291.36831,555.20163 -290.14524,563.52285 -289.21212,571.8576 C -288.7853,579.11641 -287.99016,586.27823 -286.81716,593.45136 C -286.07199,600.17417 -285.04369,606.83251 -284.00907,613.51604 C -282.9325,620.79224 -281.27131,627.93922 -280.35745,635.2477 C -278.67168,642.98342 -277.99997,650.86535 -276.82758,658.67582 C -275.48671,665.78147 -274.4953,672.93166 -274.05257,680.14846 C -272.69059,689.23412 -272.22301,698.41627 -271.11316,707.52689 C -270.13297,717.45113 -268.04489,727.20439 -266.68767,737.0747 C -266.29559,745.79532 -264.27534,754.19225 -262.25998,762.63874 C -260.56004,770.32826 -258.70263,777.98324 -256.77386,785.61879 C -255.14601,793.05637 -253.91176,800.5809 -252.667,808.09472 C -250.24078,819.10742 -247.71926,830.07321 -246.352,841.27588 C -245.00683,849.39575 -243.50373,857.47901 -242.81216,865.68656 C -241.38945,872.81464 -240.85613,880.07798 -239.65861,887.23252 C -238.68009,896.42826 -235.6728,904.90232 -232.14134,913.37724 C -228.14853,923.49832 -224.01799,933.65078 -221.44376,944.244 C -219.42169,951.75959 -217.36366,959.27206 -215.09134,966.7162 C -213.4277,973.5109 -210.79076,979.93408 -207.98449,986.32074 C -205.16819,992.86338 -202.4377,999.43601 -199.1677,1005.7706 C -195.20657,1011.1956 -189.25256,1014.2766 -183.54802,1017.5043 C -173.65098,1022.052 -163.09179,1024.8443 -152.54897,1027.4353 C -131.97375,1031.9451 -111.82314,1038.061 -91.121541,1042.0439 C -79.542686,1044.1147 -67.954031,1047.5271 -56.112,1047.449 C -50.013145,1047.9334 -26.448902,1034.3973 -46.671107,1045.8991 C -36.53144,1038.8326 -25.850165,1032.7112 -15.145584,1026.5478 C -36.618728,1038.916 -15.163371,1026.5207 -9.2958403,1023.3619 C -5.7714577,1021.4646 -1.6064257,1020.7883 2.292343,1020.1952 C 8.9457764,1019.4869 15.65597,1019.5917 22.338095,1019.5922 C 29.78925,1020.266 37.257228,1021.1172 44.273196,1023.8198 C 49.940525,1027.4383 56.19746,1029.2455 62.770312,1030.2617 C 70.051751,1030.1355 77.361889,1029.3873 84.518435,1028.0603 C 97.202001,1025.9872 109.78846,1023.3756 122.4893,1021.3986 C 131.06757,1019.9747 139.74651,1019.7635 148.41799,1019.6704 C 170.10451,1019.7117 191.79066,1019.8212 213.47728,1019.8237 C 235.21898,1019.8902 256.9608,1019.8162 278.70231,1019.726 C 288.01412,1019.1202 297.2001,1020.4186 306.42012,1021.4523 C 315.79559,1022.6895 325.16931,1022.2169 334.56538,1021.7002 C 352.7092,1020.9373 370.81769,1019.6774 388.94853,1018.676 C 408.56852,1018.7655 427.80585,1015.8226 447.00112,1012.122 C 457.15616,1010.7914 466.91179,1007.8806 476.76296,1005.2314 C 485.87324,1003.3466 494.96627,1001.5751 504.25095,1000.889 C 521.24509,1000.5767 538.0715,998.15357 554.93574,996.24683 C 566.85295,995.06045 578.71916,994.35005 590.52933,992.33879 C 601.89569,990.69503 613.22369,988.76591 624.60575,987.23797 C 634.23902,985.93878 643.96048,985.63847 653.66632,985.42906 C 662.83213,985.31892 671.99899,985.36793 681.16526,985.3689 C 689.03526,985.21879 696.81321,986.70201 704.6217,987.50025 C 711.31031,988.07543 718.02655,988.16865 724.73557,988.2262 C 731.38598,988.27109 738.03661,988.24792 744.68709,988.23662 C 750.71844,987.78743 756.42725,985.93484 762.24007,984.44528 C 767.9444,982.43573 773.75539,980.81594 779.30661,978.39443 C 783.58618,976.2776 794.77606,971.60705 774.97136,981.21166 C 774.06212,981.6526 776.60952,980.02365 777.37269,979.36131 C 779.47826,977.53395 779.56337,977.19506 781.22468,975.01558 C 785.09227,969.60609 787.06428,963.14482 788.72088,956.77513 C 790.28344,949.61169 790.51894,942.28096 791.62682,935.0471 C 792.72253,928.78307 793.26973,922.45336 793.55598,916.10711 C 794.51708,909.97293 795.58525,903.8888 796.08373,897.6932 C 797.36673,889.17535 798.35617,880.62679 798.95271,872.03407 C 799.3773,864.91336 799.43662,857.77862 799.46214,850.64755 C 799.03118,844.70625 800.23938,838.90792 801.11938,833.0723 C 801.56711,826.24175 803.02422,819.61528 804.73787,813.0098 C 807.05587,805.23956 809.41156,797.47282 811.38698,789.60696 C 813.13253,782.26983 815.82807,775.21854 817.67396,767.91257 C 819.03648,761.74539 820.67165,755.69256 821.48835,749.4186 C 821.88614,741.70505 822.7235,734.06109 823.62244,726.39186 C 824.61688,717.65148 824.91114,708.85857 825.1107,700.07129 C 825.62392,690.70463 824.95341,681.42245 823.95951,672.11865 C 822.86115,664.28774 822.94628,656.35998 822.11357,648.51188 C 820.7352,640.44643 820.4586,632.25936 819.47915,624.15211 C 818.14209,615.86866 817.52392,607.51424 816.15492,599.23784 C 814.81412,591.391 814.19714,583.4638 813.92791,575.51706 C 813.74975,567.45302 813.72536,559.38669 813.71203,551.32103 C 813.70237,544.71607 813.71998,538.11113 813.74124,531.50621 C 813.75315,523.89737 813.74168,516.28852 813.75187,508.67969 C 814.39744,501.26143 815.49557,493.90301 816.05861,486.47428 C 816.69125,478.41221 816.2861,470.31377 816.93901,462.2591 C 817.9711,454.81032 818.72752,447.34137 819.13457,439.83312 C 819.57725,432.26336 819.16907,424.66895 819.7983,417.11436 C 820.82777,409.64701 821.56578,402.15582 821.97972,394.63017 C 822.11549,388.3521 823.56617,382.20929 824.34547,375.99432 C 825.03196,369.88911 825.10112,363.73966 825.16137,357.60342 C 825.22018,350.6298 825.18826,343.65582 825.17223,336.68208 C 824.83937,328.6303 825.48054,320.66257 826.43787,312.67934 C 827.28345,305.10598 827.57808,297.51703 828.70426,289.97757 C 830.13147,282.28687 830.19157,274.4513 831.04297,266.70057 C 832.36493,259.06287 832.68264,251.30193 833.74271,243.63839 C 835.19457,236.30051 835.56754,228.82001 836.60102,221.43045 C 837.80995,214.96316 838.66945,208.45292 839.12191,201.89102 C 839.64569,194.54665 840.89486,187.28011 841.54094,179.93798 C 842.19455,171.62614 842.27945,163.28434 842.33631,154.95144 C 842.36366,146.81968 842.34895,138.68786 842.33626,130.55608 C 842.32936,123.17617 842.32063,115.79626 842.30802,108.41636 C 842.29752,102.38654 842.29439,96.356709 842.29266,90.326881 C 842.3799,83.629934 842.06626,76.925331 842.62916,70.247499 C 843.71194,62.737522 844.444,55.195466 844.84114,47.620105 C 844.80751,39.1413 845.47587,30.756766 846.46317,22.345838 C 847.33974,14.541817 847.61088,6.7182004 848.71749,-1.0590008 C 849.5542,-8.458887 850.61805,-15.789586 851.95129,-23.11551 C 852.71227,-29.200192 853.68569,-35.21037 854.88408,-41.223508 C 855.92476,-46.969687 857.61159,-52.547327 858.52932,-58.322364 C 859.32023,-64.338541 860.78194,-70.211926 861.50014,-76.245326 C 862.01391,-82.639713 863.51502,-88.890641 864.33702,-95.248886 C 865.05948,-101.50185 866.47647,-107.62726 867.20655,-113.88799 C 868.26896,-120.5226 869.86725,-127.03432 871.91296,-133.42962 C 874.028,-139.90553 876.55184,-146.28797 879.74384,-152.31185 C 885.74176,-160.20308 895.25359,-166.96811 905.28951,-167.68944 C 911.98117,-167.85249 917.44589,-164.11246 922.20961,-159.79997 C 927.70678,-154.5463 931.16869,-147.71116 934.78316,-141.12959 C 937.94404,-135.25743 939.07757,-128.71616 942.81837,-123.15848 C 947.21803,-117.61679 953.1567,-114.86671 959.60663,-112.52045 C 965.90856,-110.30945 972.52646,-109.51765 979.15144,-109.09509 C 984.97577,-108.82229 990.8087,-108.86435 996.63764,-108.87814 C 1002.5513,-108.68023 1008.231,-110.51424 1013.5934,-112.83772 C 1021.8984,-117.48155 1009.3767,-110.41323 1007.2241,-109.2827 C 1006.2298,-108.76051 1009.1302,-110.4711 1010.0756,-111.07732 C 1013.053,-112.98654 1015.8773,-115.02777 1018.6803,-117.18277 C 1027.7299,-124.21488 1037.9226,-129.49754 1047.8086,-135.22507 C 1053.4513,-138.16436 1058.818,-141.38307 1065.0879,-142.69891 C 1071.5749,-142.9861 1077.0729,-139.56993 1082.5215,-136.53817 C 1088.171,-132.81125 1093.8896,-129.21292 1099.6764,-125.70162 C 1105.0468,-122.4405 1110.5723,-119.8656 1116.7088,-118.49389 C 1122.3336,-117.48293 1128.067,-117.46692 1133.7626,-117.4277 C 1140.2689,-116.87211 1146.294,-117.8616 1152.4875,-119.7294 C 1156.5687,-121.80031 1168.7893,-126.84048 1149.7603,-117.66479 C 1148.6495,-117.12917 1151.7693,-119.09545 1152.7754,-119.80844 C 1158.0387,-123.53802 1153.3954,-120.22447 1158.6309,-123.97101 C 1167.884,-130.05571 1177.0747,-136.69105 1187.9502,-139.2989 C 1193.9322,-140.73222 1199.6128,-138.49434 1205.2975,-136.90239 C 1211.472,-135.62055 1217.1924,-132.76695 1222.5329,-129.48942 C 1227.8951,-125.99875 1233.3594,-123.07977 1239.5769,-121.50451 C 1245.6027,-119.80614 1250.9286,-121.36875 1256.438,-123.86411 C 1254.5231,-122.87783 1263.9834,-128.15878 1262.1038,-127.07334 C 1240.2829,-114.47226 1262.7311,-128.10711 1270.7071,-131.69536 L 1259.6929,-122.93173 C 1258.752,-122.47376 1255.9835,-121.00186 1256.8701,-121.55783 C 1259.8705,-123.43939 1269.1087,-128.6923 1266.0453,-126.91525 C 1259.1944,-122.94123 1252.4413,-118.7612 1245.3906,-115.13718 C 1239.6244,-112.83164 1234.0846,-111.65981 1227.9659,-113.52556 C 1221.7176,-115.29769 1216.1733,-118.34885 1210.724,-121.85273 C 1205.4054,-125.004 1199.7664,-127.67349 1193.6771,-128.93801 C 1188.1089,-130.51734 1182.5749,-132.38929 1176.7663,-130.73043 C 1174.2589,-130.02657 1173.5542,-129.91956 1171.1412,-128.87092 C 1170.1825,-128.45428 1167.437,-126.94019 1168.3235,-127.49427 C 1186.6943,-138.97716 1175.7413,-131.52318 1171.6933,-129.13551 C 1162.1735,-122.25371 1152.4961,-115.13314 1141.3546,-111.14633 C 1135.0884,-109.36831 1128.8713,-108.72667 1122.3517,-109.15346 C 1116.5895,-109.22118 1110.7838,-109.29352 1105.1197,-110.4805 C 1098.9321,-112.03852 1093.3123,-114.7516 1087.8665,-118.06673 C 1082.0842,-121.55639 1076.4333,-125.23685 1070.7356,-128.85772 C 1065.5038,-131.76836 1060.1164,-134.96261 1053.8835,-134.15572 C 1047.7865,-132.55809 1042.4271,-129.28498 1036.8769,-126.3741 C 1035.9227,-125.82708 1033.0672,-124.17382 1034.0143,-124.73303 C 1037.0624,-126.53283 1040.0933,-128.36346 1043.1802,-130.09592 C 1044.1652,-130.64873 1041.2794,-128.87501 1040.3232,-128.27379 C 1035.7255,-125.38298 1039.1143,-127.6613 1034.5904,-124.42817 C 1033.6369,-123.74674 1032.6767,-123.07483 1031.7198,-122.39816 C 1022.7216,-115.25554 1012.7171,-109.39913 1002.5345,-104.12332 C 996.99321,-101.95759 991.25615,-100.29809 985.23634,-100.59147 C 979.39107,-100.58423 973.54012,-100.5535 967.70248,-100.89926 C 960.99507,-101.41556 954.31425,-102.35748 947.95568,-104.66516 C 941.26858,-107.13035 935.21655,-110.31626 930.69749,-116.04829 C 926.91753,-121.65691 925.66257,-128.15158 922.60817,-134.13578 C 919.07396,-140.58527 915.71748,-147.29872 910.26318,-152.38633 C 905.63761,-156.46048 900.40191,-159.81867 893.97968,-159.25787 C 888.65816,-158.30265 880.70797,-153.39826 898.58855,-163.5173 C 899.37346,-163.9615 892.2155,-158.96787 892.6001,-158.06171 C 889.20062,-152.21645 886.81894,-145.78447 884.62343,-139.4069 C 882.51048,-133.11064 880.9986,-126.663 879.80665,-120.1301 C 879.11725,-113.85829 877.78035,-107.72361 876.96547,-101.48523 C 876.18338,-95.117518 874.65273,-88.875279 874.10122,-82.487027 C 873.44274,-76.428206 872.04898,-70.543888 871.18218,-64.529286 C 870.32749,-58.717881 868.66999,-53.124747 867.56044,-47.373674 C 866.37892,-41.354669 865.25355,-35.374642 864.58962,-29.270167 C 863.24894,-21.950688 862.06347,-14.652657 861.30465,-7.2458711 C 860.15756,0.5222176 859.85374,8.3289804 859.01964,16.133385 C 858.01779,24.514502 857.22762,32.858045 857.37312,41.315035 C 856.99614,48.905037 856.34374,56.472949 855.19719,63.990002 C 854.52068,70.61309 854.95339,77.278003 854.84991,83.928648 C 854.84813,89.963284 854.84484,95.997919 854.83631,102.03255 C 854.82678,109.41786 854.82302,116.80316 854.83053,124.18847 C 854.83287,132.32801 854.85096,140.46765 854.80878,148.60712 C 854.75167,156.96946 854.73041,165.34221 854.07909,173.68472 C 853.46041,181.00912 852.29643,188.26547 851.71396,195.58049 C 851.28682,202.18426 850.47223,208.74318 849.19994,215.24133 C 848.05847,222.61196 847.8488,230.11787 846.3437,237.4482 C 845.14965,245.08383 845.02244,252.86775 843.5935,260.48454 C 842.6731,268.23748 842.74368,276.09385 841.30515,283.79467 C 840.14149,291.32213 839.7865,298.8916 839.00849,306.46599 C 838.01813,314.39347 837.27339,322.28838 837.70903,330.29247 C 837.70888,337.27167 837.70877,344.25089 837.69782,351.23009 C 837.64647,357.40822 837.63623,363.60006 836.97651,369.75089 C 836.23686,375.95601 834.74787,382.06924 834.53246,388.3205 C 834.12117,395.86291 833.4491,403.38241 832.35249,410.85894 C 831.62303,418.3902 832.11586,425.97292 831.66879,433.52649 C 831.31248,441.05493 830.59629,448.55099 829.48259,456.00722 C 828.70452,464.04126 829.21056,472.13792 828.62021,480.19147 C 828.07393,487.59697 827.07733,494.93741 826.24843,502.31243 C 826.25816,509.91942 826.24631,517.52644 826.25042,525.13344 C 826.26348,531.73598 826.26387,538.33851 826.23494,544.94102 C 826.21418,552.99816 826.18091,561.05704 826.39158,569.11223 C 826.66906,577.00062 827.20345,584.8827 828.53188,592.67442 C 829.89666,600.9707 830.56913,609.33415 831.8716,617.64149 C 832.92763,625.74116 833.11063,633.94239 834.53947,642.00423 C 835.47105,649.85071 835.26952,657.7976 836.34785,665.64104 C 837.32875,674.99575 838.11151,684.32527 837.58479,693.74534 C 837.44871,702.57219 837.09784,711.4011 836.1519,720.18301 C 835.33111,727.85132 834.36016,735.47466 834.09501,743.19033 C 833.34373,749.52988 831.78349,755.62753 830.35606,761.83399 C 828.57371,769.17133 825.80365,776.20126 824.03588,783.5458 C 822.09491,791.42231 819.7427,799.195 817.39882,806.95919 C 815.6919,813.51287 814.10326,820.06477 813.76954,826.85987 C 812.92376,832.64534 811.57223,838.37231 812.00769,844.26222 C 811.97028,851.43083 811.88764,858.6021 811.47171,865.76063 C 810.91516,874.34889 809.94363,882.90286 808.64015,891.41047 C 808.23226,897.59619 807.31582,903.6807 806.13664,909.76561 C 805.86906,916.16497 805.35609,922.55237 804.23635,928.86659 C 803.07715,936.13485 802.82375,943.48343 801.37941,950.70952 C 799.83506,957.19984 797.86398,963.80837 794.1528,969.40925 C 788.1703,978.3229 777.93641,982.99543 768.25422,987.11617 C 762.62771,989.38927 756.82814,991.14752 751.05812,993.01435 C 745.21503,994.57013 739.38954,996.26191 733.29989,996.51179 C 726.64607,996.51497 719.99219,996.52294 713.33843,996.48846 C 706.6055,996.40504 699.86564,996.27077 693.15703,995.64589 C 685.40643,994.79197 677.67386,993.36586 669.8492,993.58822 C 660.68497,993.565 651.51995,993.54275 642.35647,993.68304 C 632.70083,993.88648 623.03496,994.24738 613.45647,995.57415 C 602.10793,997.18013 590.78196,998.94998 579.45106,1000.6734 C 567.65882,1002.6356 555.80025,1003.2861 543.90809,1004.4476 C 527.00206,1006.3075 510.13913,1008.6542 493.11756,1009.1257 C 483.86338,1010.043 474.73236,1011.7402 465.6558,1013.758 C 455.86144,1016.4173 446.10302,1019.0847 436.01144,1020.4249 C 416.82471,1023.9886 397.58609,1026.7149 378.01378,1026.7181 C 359.8205,1027.8307 341.63547,1028.9911 323.43041,1029.8929 C 313.93204,1030.5121 304.44527,1030.8253 294.97202,1029.572 C 285.84458,1028.5044 276.73621,1027.3701 267.51716,1027.8521 C 245.88951,1027.7511 224.26161,1027.6603 202.63367,1027.7009 C 180.80021,1027.6742 158.96537,1027.6845 137.13297,1027.8938 C 128.51146,1028.0451 119.88487,1028.3665 111.35594,1029.7533 C 98.657835,1031.7318 86.0593,1034.2852 73.393292,1036.4494 C 66.115158,1037.7167 58.671603,1038.6625 51.271562,1038.3339 C 44.646376,1037.1875 38.406609,1035.1563 32.598682,1031.6826 C 25.656759,1029.1984 18.312682,1028.3107 10.980026,1027.8461 C 4.3276342,1027.8609 -2.3638115,1027.7756 -8.9701152,1028.6666 C -11.87675,1029.198 -14.671565,1029.8026 -17.429591,1030.9002 C -18.392198,1031.2833 -21.133853,1032.7353 -20.268311,1032.1659 C -17.640103,1030.437 10.59818,1014.2174 -26.080264,1035.3817 C -3.6956316,1022.2911 -29.91491,1037.7376 -33.60716,1040.8771 C -44.354488,1047.0669 -54.79824,1054.4827 -67.464004,1055.6749 C -79.271654,1055.3026 -90.786861,1052.0872 -102.33281,1049.8613 C -123.01214,1045.705 -143.17794,1039.5237 -163.82273,1035.2209 C -174.54176,1032.6245 -185.35091,1029.9888 -195.33418,1025.1731 C -201.27171,1021.8152 -207.35213,1018.4498 -211.38181,1012.7456 C -214.66147,1006.3849 -217.3794,999.77162 -220.2157,993.20789 C -223.06913,986.78009 -225.77156,980.32199 -227.4032,973.45785 C -229.70154,965.98837 -231.73586,958.43436 -233.75557,950.8852 C -236.23023,940.33517 -240.24544,930.2095 -244.22303,920.15232 C -247.98376,911.30466 -251.04647,903.4495 -252.05813,893.81512 C -253.29287,886.6291 -253.78637,879.32104 -255.27241,872.1652 C -255.93555,863.96059 -257.32183,855.86215 -258.69281,847.75034 C -260.00693,836.57164 -262.35172,825.5855 -265.05443,814.66279 C -266.27435,807.1825 -267.58066,799.71135 -269.10753,792.2916 C -271.02972,784.64582 -272.92722,776.99153 -274.58762,769.28479 C -276.57742,760.78611 -278.75968,752.3657 -279.04799,743.58424 C -280.37331,733.70212 -282.45092,723.94232 -283.46767,714.01638 C -284.63372,704.89731 -285.01111,695.68654 -286.53763,686.60544 C -286.96775,679.42352 -287.85773,672.2934 -289.2071,665.22276 C -290.43094,657.41218 -291.02994,649.5061 -292.79315,641.77524 C -293.66059,634.47143 -295.33024,627.34346 -296.41834,620.08201 C -297.46209,613.40431 -298.57442,606.7649 -299.2421,600.03568 C -300.39836,592.8327 -301.2845,585.65428 -301.63683,578.36034 C -302.53866,569.97426 -303.83565,561.61262 -303.40382,553.14904 C -303.41872,545.28481 -303.42473,537.42019 -303.31053,529.55655 C -303.13345,522.01801 -302.79932,514.48095 -301.87037,506.99118 C -300.85498,499.1209 -300.10904,491.28697 -300.53495,483.33394 C -300.53356,475.87443 -300.54022,468.41493 -300.55131,460.95544 C -300.56753,454.44915 -300.54592,447.94285 -300.54551,441.43655 C -300.54601,434.38036 -300.54552,427.32421 -300.5162,420.26805 C -300.49882,411.77937 -300.47534,403.29065 -300.50177,394.80196 C -300.56135,386.987 -300.59988,379.16042 -301.28284,371.36908 C -302.02375,364.05233 -303.56171,356.92792 -304.80174,349.69404 C -306.23898,341.66192 -308.63768,333.86208 -310.10324,325.83261 C -311.88401,317.89889 -313.66119,309.95999 -314.95819,301.93245 C -316.23392,294.22036 -316.76502,286.37982 -318.80712,278.79917 C -319.66366,272.79763 -321.1696,266.92156 -321.6383,260.8677 C -322.53811,255.16678 -323.9521,249.55446 -324.2009,243.76743 C -325.01806,237.90147 -326.63526,232.20862 -327.37531,226.34083 C -328.36162,219.1091 -329.65725,211.91571 -329.09722,204.57708 C -329.03585,195.67402 -328.99267,186.76174 -328.31793,177.87884 C -327.64955,169.63495 -326.33875,161.50547 -325.49109,153.29482 C -324.92652,146.89408 -323.45337,140.59884 -323.38911,134.17544 C -323.39302,127.12562 -323.395,120.07291 -323.69813,113.02816 C -324.05806,106.06317 -324.6714,99.121455 -325.87137,92.244207 C -326.69261,85.693277 -326.05485,79.05049 -326.52829,72.465576 C -326.92675,63.991446 -327.58935,55.534817 -328.99778,47.160248 C -330.07391,38.564182 -330.1391,29.857436 -331.65202,21.304929 C -332.63967,13.744443 -332.5448,6.0447075 -334.28523,-1.4268673 C -336.02463,-9.522027 -338.54076,-17.415861 -340.07811,-25.560012 C -341.77797,-32.100742 -344.26425,-38.340501 -346.44775,-44.725851 C -348.68498,-50.51435 -351.06112,-56.230429 -353.75615,-61.821657 C -356.49798,-67.493089 -359.56577,-73.057716 -361.56787,-79.037537 C -363.48476,-84.654788 -365.05205,-90.424001 -365.87299,-96.308612 C -366.59659,-102.02604 -366.04978,-107.80434 -366.23067,-113.55704 C -366.31581,-119.29398 -366.40955,-125.08201 -367.71497,-130.699 C -369.22029,-136.05638 -371.44618,-141.38564 -375.56163,-145.27673 C -376.94835,-146.16947 -377.87757,-147.01135 -379.56156,-147.22686 C -380.2581,-147.31601 -382.22102,-146.67819 -381.66482,-147.10686 C -363.2777,-161.27811 -371.76381,-153.55123 -375.06013,-150.11802 C -379.03738,-143.14468 -382.36646,-135.76464 -387.10224,-129.22534 C -396.1578,-117.33492 -406.21854,-108.31647 -420.26405,-101.9561 C -425.73697,-99.01253 -431.46294,-97.431382 -437.69959,-98.73404 C -443.92359,-100.01321 -449.7309,-102.31053 -455.17251,-105.6275 C -461.63696,-110.01564 -467.15704,-115.70349 -474.13898,-119.33759 C -480.0806,-122.1131 -486.09068,-123.86299 -492.65134,-122.16176 C -495.45019,-121.44316 -496.35558,-121.30156 -499.07935,-120.22593 C -500.19701,-119.78457 -503.36357,-118.08066 -502.37349,-118.76161 C -485.1378,-130.61579 -495.68286,-122.23892 -499.63069,-119.90825 C -505.00659,-115.17982 -510.23726,-110.35082 -513.63701,-103.9216 C -516.8867,-97.745239 -519.16303,-91.081261 -523.33257,-85.397793 C -528.73241,-78.441523 -525.23219,-82.340239 -539.57084,-73.476398 C -543.1338,-71.273857 -547.16817,-72.181299 -550.23654,-74.707696 C -555.43171,-82.114078 -556.39811,-91.331429 -558.10961,-100.02191 C -560.3749,-111.17414 -562.68057,-122.34693 -565.76448,-133.30134 C -568.8585,-143.31133 -571.62894,-153.61839 -577.57708,-162.39944 C -582.07609,-169.15187 -588.08279,-176.60367 -596.81463,-177.03248 C -593.62356,-178.96757 -590.55988,-181.1303 -587.24142,-182.83774 C -586.32392,-183.30982 -588.84191,-181.52554 -589.54678,-180.772 C -592.83016,-177.26188 -594.67874,-172.69835 -596.65642,-168.40123 C -599.88006,-161.61737 -602.64791,-154.64571 -604.44154,-147.33583 C -605.74982,-141.16483 -606.23674,-134.91874 -607.25778,-128.69453 C -608.46911,-121.22189 -608.68752,-113.70184 -609.53851,-106.18384 C -610.39769,-99.28473 -611.29841,-92.444809 -610.97405,-85.465359 C -611.18384,-76.782839 -611.50446,-68.096636 -612.41772,-59.454729 C -613.33951,-51.114663 -614.19371,-42.817251 -614.05958,-34.40903 C -614.46088,-25.156041 -615.22279,-15.939821 -616.30694,-6.7403151 C -617.06451,2.261451 -616.66711,11.320383 -617.68458,20.311098 C -618.42121,27.266281 -619.88316,34.134612 -619.73512,41.16043 C -620.12159,48.391658 -621.00756,55.57003 -622.24294,62.706414 C -623.25734,69.983885 -623.34843,77.376352 -624.85318,84.593118 C -625.98028,92.540899 -625.59929,100.65674 -626.80786,108.61251 C -627.84447,117.69106 -628.96998,126.74273 -629.73527,135.84872 C -630.84273,143.95979 -632.17599,152.02264 -633.05064,160.16517 C -634.20929,168.07035 -634.74808,176.01187 -635.75833,183.93808 C -637.08825,193.11877 -637.38057,202.38383 -638.75526,211.56347 C -640.63161,223.1424 -643.85044,234.42902 -645.60736,246.0301 C -646.30382,254.94728 -647.63842,263.76302 -649.28441,272.5542 C -650.80323,284.49792 -653.45532,296.20858 -657.02036,307.71396 C -658.99178,315.38358 -660.79059,323.07719 -661.60347,330.97273 C -662.6796,337.65011 -663.2727,344.3686 -664.51438,351.02082 C -666.01546,358.83018 -666.56239,366.75982 -668.29565,374.52833 C -670.09446,382.29391 -671.73066,390.00303 -671.3975,398.04863 C -671.85578,408.44063 -672.63105,418.82683 -672.69318,429.22916 C -671.99999,437.10165 -670.64236,444.9211 -670.80182,452.84132 C -670.62025,460.1053 -670.24863,467.36686 -669.35106,474.58246 C -668.21639,483.77423 -667.26315,492.93878 -666.99548,502.20691 C -666.21808,511.63235 -664.9057,521.02503 -665.04359,530.50112 C -664.69712,541.33395 -663.96884,552.15264 -662.59219,562.908 C -660.56585,579.73664 -659.37934,596.64466 -658.50806,613.57218 C -658.14582,631.85594 -660.49532,649.98953 -662.53967,668.13773 C -662.80462,678.29151 -663.17605,688.44212 -664.36506,698.53872 C -665.45805,710.14092 -665.2626,721.75081 -665.28277,733.39705 C -665.37048,747.42478 -665.25154,761.47317 -665.93987,775.48478 C -666.68078,784.93199 -668.32586,794.29448 -668.53301,803.77754 C -668.98881,812.91715 -669.96738,821.98688 -671.17789,831.05638 C -671.66584,840.8325 -672.30489,850.64 -674.46572,860.21648 C -676.06937,867.92891 -677.8675,875.45303 -680.93778,882.74092 C -684.61007,894.35045 -686.39224,906.46994 -690.44152,917.97785 C -696.59854,936.93382 -702.89715,955.89958 -710.87149,974.18253 C -717.20431,987.85715 -723.66051,1001.4454 -731.56153,1014.3116 L -744.33731,1020.0369 z"
         id="path2802"
         style="opacity:1;fill:#0000ff;fill-opacity:1;stroke:#ffffff;stroke-width:2;stroke-miterlimit:4;stroke-dasharray:none;stroke-opacity:1" />
      <rect
         transform="matrix(0,1,-1,0,0,0)"
         y="-855.15314"
         x="-20.585672"
         height="8.5714283"
         width="61.428593"
         id="rect2628"
         style="fill:#00ff00;fill-opacity:1;stroke:#ffffff;stroke-width:2.00000024;stroke-miterlimit:4;stroke-dasharray:none;stroke-opacity:1" />
      <text
         id="text2649"
         y="-37.101017"
         x="828.35242"
         style="font-size:34.65041351px;font-style:normal;font-weight:normal;fill:#00ff00;fill-opacity:1;stroke:none;stroke-width:1px;stroke-linecap:butt;stroke-linejoin:miter;stroke-opacity:1;font-family:Bitstream Vera Sans"
         xml:space="preserve"><tspan
           style="font-style:normal;font-weight:bold;fill:#00ff00"
           y="-37.101017"
           x="828.35242"
           id="tspan2651"
           sodipodi:role="line">90</tspan></text>
    </g>
  </g>
</svg>
